<svg preserveAspectRatio="none" width="100%" height="100%" overflow="visible" style="display: block;" viewBox="0 0 26 24" fill="none" xmlns="http://www.w3.org/2000/svg">
<g id="Vector">
<path d="M9 10C9 10.8284 8.32843 11.5 7.5 11.5C6.67157 11.5 6 10.8284 6 10C6 9.17157 6.67157 8.5 7.5 8.5C8.32843 8.5 9 9.17157 9 10Z" fill="var(--fill-0, #4850E5)"/>
<path d="M14.5 10C14.5 10.8284 13.8284 11.5 13 11.5C12.1716 11.5 11.5 10.8284 11.5 10C11.5 9.17157 12.1716 8.5 13 8.5C13.8284 8.5 14.5 9.17157 14.5 10Z" fill="var(--fill-0, #4850E5)"/>
<path d="M18.5 11.5C19.3284 11.5 20 10.8284 20 10C20 9.17157 19.3284 8.5 18.5 8.5C17.6716 8.5 17 9.17157 17 10C17 10.8284 17.6716 11.5 18.5 11.5Z" fill="var(--fill-0, #4850E5)"/>
<path fill-rule="evenodd" clip-rule="evenodd" d="M2 0C1.46957 0 0.960859 0.210714 0.585787 0.585787C0.210714 0.960859 0 1.46957 0 2V18C0 18.5304 0.210714 19.0391 0.585787 19.4142C0.960861 19.7893 1.46957 20 2 20H12.2201L13.9317 22.9953C14.1065 23.3019 14.3593 23.5568 14.6644 23.7341C14.9696 23.9114 15.3162 24.0048 15.6692 24.0048C16.0221 24.0048 16.3687 23.9114 16.6739 23.7341C16.9791 23.5568 17.2319 23.3019 17.4067 22.9953L19.1182 20H24C24.5304 20 25.0391 19.7893 25.4142 19.4142C25.7893 19.0391 26 18.5304 26 18V2C26 1.46957 25.7893 0.960861 25.4142 0.585787C25.0391 0.210714 24.5304 0 24 0H2ZM2 2L24 2V18H18.5379C18.1791 18 17.8477 18.1923 17.6697 18.5039L15.6687 22.0039L13.6687 18.5039C13.4906 18.1923 13.1593 18 12.8004 18H2L2 2Z" fill="var(--fill-0, #4850E5)"/>
</g>
</svg>
