<svg preserveAspectRatio="none" width="100%" height="100%" overflow="visible" style="display: block;" viewBox="0 0 28 26" fill="none" xmlns="http://www.w3.org/2000/svg">
<path id="Vector" fill-rule="evenodd" clip-rule="evenodd" d="M14.8452 0.488155C14.1943 -0.162719 13.139 -0.162718 12.4882 0.488155L0.292893 12.6834C-0.0976311 13.0739 -0.0976311 13.7071 0.292893 14.0976C0.683417 14.4882 1.31658 14.4882 1.70711 14.0976L2 13.8047V23.0572H1.66667C1.11438 23.0572 0.666667 23.5049 0.666667 24.0572C0.666667 24.6095 1.11438 25.0667 1.66667 25.0667H25.3333C25.8856 25.0667 26.3333 24.6095 26.3333 24.0572C26.3333 23.5049 25.8856 23.0572 25.3333 23.0572V13.8047L25.6262 14.0976C26.0168 14.4882 26.6499 14.4882 27.0404 14.0976C27.431 13.7071 27.431 13.0739 27.0404 12.6834L14.8452 0.488155ZM10 23.0572H4V11.8047L13.6667 2.13807L23.3333 11.8047V23.0572H17.3333V16.7239C17.3333 15.8034 16.5871 15.0572 15.6667 15.0572H11.6667C10.7462 15.0572 10 15.8034 10 16.7239V23.0572ZM12 23.0572H15.3333V17.0572H12V23.0572Z" fill="var(--fill-0, #2F2F46)"/>
</svg>
