<svg preserveAspectRatio="none" width="100%" height="100%" overflow="visible" style="display: block;" viewBox="0 0 27 27" fill="none" xmlns="http://www.w3.org/2000/svg">
<path id="Vector" fill-rule="evenodd" clip-rule="evenodd" d="M0 2.66667C0 1.19391 1.19391 0 2.66667 0H24C25.4728 0 26.6667 1.19391 26.6667 2.66667V24C26.6667 25.4728 25.4728 26.6667 24 26.6667H2.66667C1.19391 26.6667 0 25.4728 0 24V2.66667ZM13.3333 2H24C24.3682 2 24.6667 2.29848 24.6667 2.66667V10H13.3333V2ZM11.3333 2H2.66667C2.29848 2 2 2.29848 2 2.66667V14.6667H11.3333V2ZM2 16.6667V24C2 24.3682 2.29848 24.6667 2.66667 24.6667H11.3333V16.6667H2ZM13.3333 24.6667H24C24.3682 24.6667 24.6667 24.3682 24.6667 24V12H13.3333V24.6667Z" fill="var(--fill-0, #4850E5)"/>
</svg>
