<svg preserveAspectRatio="none" width="100%" height="100%" overflow="visible" style="display: block;" viewBox="0 0 26 26" fill="none" xmlns="http://www.w3.org/2000/svg">
<path id="Vector" fill-rule="evenodd" clip-rule="evenodd" d="M0 10.6667C0 4.77563 4.77563 0 10.6667 0C16.5577 0 21.3333 4.77563 21.3333 10.6667C21.3333 13.2521 20.4135 15.6227 18.8832 17.469L25.0404 23.6262C25.431 24.0168 25.431 24.6499 25.0404 25.0404C24.6499 25.431 24.0168 25.431 23.6262 25.0404L17.469 18.8832C15.6227 20.4135 13.2521 21.3333 10.6667 21.3333C4.77563 21.3333 0 16.5577 0 10.6667ZM10.6667 19.3333C5.8802 19.3333 2 15.4531 2 10.6667C2 5.8802 5.8802 2 10.6667 2C15.4531 2 19.3333 5.8802 19.3333 10.6667C19.3333 15.4531 15.4531 19.3333 10.6667 19.3333Z" fill="var(--fill-0, #4850E5)"/>
</svg>
