<svg preserveAspectRatio="none" width="100%" height="100%" overflow="visible" style="display: block;" viewBox="0 0 30 19" fill="none" xmlns="http://www.w3.org/2000/svg">
<g id="Vector">
<path fill-rule="evenodd" clip-rule="evenodd" d="M0 2.33352C0 1.04475 1.04475 0 2.33352 0H27.0022C28.291 0 29.3357 1.04475 29.3357 2.33352V3.66697C29.3357 4.87486 28.418 5.8684 27.2418 5.98834L26.1172 16.5669C25.9979 17.7598 24.9941 18.6682 23.7953 18.6682H5.54043C4.34158 18.6682 3.33778 17.7598 3.21849 16.5669L2.09397 5.98834C0.917738 5.8684 0 4.87486 0 3.66697V2.33352ZM2.33352 2.00016C2.14941 2.00016 2.00016 2.14941 2.00016 2.33352V3.66697C2.00016 3.85108 2.14941 4.00033 2.33352 4.00033H3.90531L5.20873 16.3678C5.22577 16.5382 5.36917 16.668 5.54043 16.668H23.7953C23.9666 16.668 24.11 16.5382 24.127 16.3678L25.4304 4.00033H27.0022C27.1863 4.00033 27.3356 3.85107 27.3356 3.66697V2.33352C27.3356 2.14941 27.1863 2.00016 27.0022 2.00016H2.33352Z" fill="var(--fill-0, #4850E5)"/>
<path d="M12.0003 4.00033H17.3354C18.6252 4.00033 19.6683 5.04634 19.6683 6.33414C19.6683 6.88647 19.2205 7.33393 18.6682 7.33393C18.1159 7.33393 17.6681 6.88539 17.6681 6.33306C17.6681 6.14798 17.5186 6.00049 17.3354 6.00049H12.0003C11.8171 6.00049 11.6676 6.14907 11.6676 6.33414C11.6676 6.88647 11.2199 7.33393 10.6675 7.33393C10.1152 7.33393 9.66745 6.88618 9.66745 6.33385C9.66745 5.04605 10.7105 4.00033 12.0003 4.00033Z" fill="var(--fill-0, #4850E5)"/>
</g>
</svg>
