<svg preserveAspectRatio="none" width="100%" height="100%" overflow="visible" style="display: block;" viewBox="0 0 24 23" fill="none" xmlns="http://www.w3.org/2000/svg">
<g id="Vector">
<path d="M10.7198 16.5714H12.3469C16.1853 16.5714 19.5325 18.8116 21.2979 22.1311C21.4693 22.4532 21.7978 22.6667 22.1625 22.6667C22.8201 22.6667 23.2707 22.0068 22.9731 21.42C20.9338 17.3988 16.94 14.6667 12.3469 14.6667H10.7198C6.12669 14.6667 2.13285 17.3988 0.0935539 21.42C-0.204001 22.0068 0.246584 22.6667 0.904144 22.6667C1.26883 22.6667 1.59741 22.4532 1.76874 22.1311C3.53421 18.8116 6.88132 16.5714 10.7198 16.5714Z" fill="var(--fill-0, white)"/>
<path fill-rule="evenodd" clip-rule="evenodd" d="M5.2 8C5.2 11.4978 8.03553 14.3333 11.5333 14.3333C15.0311 14.3333 17.8667 11.4978 17.8667 8C17.8667 4.5022 15.0311 1.66667 11.5333 1.66667C8.03553 1.66667 5.2 4.5022 5.2 8ZM11.5333 0C7.11506 0 3.53333 3.58172 3.53333 8C3.53333 12.4183 7.11506 16 11.5333 16C15.9516 16 19.5333 12.4183 19.5333 8C19.5333 3.58172 15.9516 0 11.5333 0Z" fill="var(--fill-0, white)"/>
</g>
</svg>
